<?xml version="1.0" encoding="UTF-8"?>
<svg width="256" height="256" viewBox="0 0 256 256" xmlns="http://www.w3.org/2000/svg">
  <!-- Background -->
  <rect width="256" height="256" fill="#000000"/>
  
  <!-- Outer border -->
  <rect x="20" y="20" width="216" height="216" fill="none" stroke="#A0A0A0" stroke-width="2" rx="4"/>
  
  <!-- Vertical divider -->
  <line x1="128" y1="20" x2="128" y2="236" stroke="#A0A0A0" stroke-width="2"/>
  
  <!-- Left pane: Code representation with curly braces -->
  <g transform="translate(74, 128)">
    <!-- Opening brace -->
    <path d="M -20 -50 Q -30 -50 -30 -40 L -30 -10 Q -30 0 -40 0 Q -30 0 -30 10 L -30 40 Q -30 50 -20 50" 
          fill="none" stroke="#A0A0A0" stroke-width="3" stroke-linecap="round"/>
    
    <!-- Closing brace -->
    <path d="M 20 -50 Q 30 -50 30 -40 L 30 -10 Q 30 0 40 0 Q 30 0 30 10 L 30 40 Q 30 50 20 50" 
          fill="none" stroke="#A0A0A0" stroke-width="3" stroke-linecap="round"/>
    
    <!-- Code lines inside braces -->
    <line x1="-15" y1="-25" x2="15" y2="-25" stroke="#808080" stroke-width="2"/>
    <line x1="-15" y1="0" x2="10" y2="0" stroke="#808080" stroke-width="2"/>
    <line x1="-15" y1="25" x2="15" y2="25" stroke="#808080" stroke-width="2"/>
  </g>
  
  <!-- Right pane: Minimalist robot face -->
  <g transform="translate(182, 128)">
    <!-- Robot head outline -->
    <rect x="-35" y="-40" width="70" height="70" fill="none" stroke="#A0A0A0" stroke-width="2" rx="6"/>
    
    <!-- Antenna -->
    <line x1="0" y1="-40" x2="0" y2="-52" stroke="#A0A0A0" stroke-width="2"/>
    <circle cx="0" cy="-55" r="4" fill="#A0A0A0"/>
    
    <!-- Eyes -->
    <circle cx="-15" cy="-15" r="5" fill="#A0A0A0"/>
    <circle cx="15" cy="-15" r="5" fill="#A0A0A0"/>
    
    <!-- Mouth/interface line -->
    <path d="M -20 10 L -10 15 L 10 15 L 20 10" 
          fill="none" stroke="#A0A0A0" stroke-width="2" stroke-linecap="round" stroke-linejoin="round"/>
    
    <!-- Additional detail: small dots suggesting processing -->
    <circle cx="-20" cy="0" r="1.5" fill="#808080"/>
    <circle cx="0" cy="0" r="1.5" fill="#808080"/>
    <circle cx="20" cy="0" r="1.5" fill="#808080"/>
  </g>
</svg>
